<?xml version="1.0" encoding="utf-8"?>
<!-- Generator: Adobe Illustrator 25.3.1, SVG Export Plug-In . SVG Version: 6.00 Build 0)  -->
<svg version="1.1" id="Layer_1" xmlns="http://www.w3.org/2000/svg" xmlns:xlink="http://www.w3.org/1999/xlink" x="0px" y="0px"
	 viewBox="0 0 375 62" style="enable-background:new 0 0 375 62;" xml:space="preserve">
<style type="text/css">
	.st0{fill:#4A7370;}
</style>
<g>
	<path class="st0" d="M-100.4,12.6C-376.6,33.8-514.8,91-524.5,93.8c-9.7,2.7,126.7,9.9,170.7,0c44-9.9,200.8,9.5,308.9-23.5
		C95.2,27.5,180.8,55.5,263.3,56.6C314,57.2,314.6-6,379.5,22c89.1,38.3,195.8,128.9,306,48.3c78.8-57.7,173.9,48.3,266.7,54.4
		C856.2,1.5,289-17.2-100.4,12.6z"/>
	<path class="st0" d="M-100.4,12.6C-376.6,33.8-514.8,91-524.5,93.8c-9.7,2.7,126.7,9.9,170.7,0c44-9.9,200.8,9.5,308.9-23.5
		C95.2,27.5,180.8,55.5,263.3,56.6C314,57.2,314.6-6,379.5,22c89.1,38.3,195.8,128.9,306,48.3c78.8-57.7,173.9,48.3,266.7,54.4
		C856.2,1.5,289-17.2-100.4,12.6z"/>
</g>
</svg>
